<svg width="175" height="168" viewBox="0 0 175 168" fill="none" xmlns="http://www.w3.org/2000/svg">
<path fill-rule="evenodd" clip-rule="evenodd" d="M94.5761 51.9963C96.1759 46.4974 97.1386 39.4188 97.1386 31.6948C97.1386 14.1902 92.1943 0 86.0951 0C79.9959 0 75.0516 14.1902 75.0516 31.6948C75.0516 39.2389 75.97 46.1675 77.5034 51.6097C73.9665 52.448 70.6473 53.8439 67.6452 55.6988C65.4403 49.6677 60.4828 42.3026 53.5724 35.4353C41.1172 23.0577 27.0345 16.9845 22.118 21.8704C17.2015 26.7563 23.3128 40.7511 35.768 53.1287C42.7634 60.0804 50.272 65.0435 56.3818 67.1933C55.1802 69.2334 54.191 71.4119 53.4442 73.6991C47.7684 71.5497 40.202 70.2379 31.8936 70.2379C14.2793 70.2379 0 76.1341 0 83.4075C0 90.6808 14.2793 96.5771 31.8936 96.5771C40.0489 96.5771 47.4892 95.3131 53.1285 93.2338C53.6683 95.0898 54.3662 96.8791 55.207 98.5863C49.9194 101.177 43.9738 105.476 38.3589 111.056C25.9036 123.434 19.7923 137.428 24.7088 142.314C29.6254 147.2 43.708 141.127 56.1632 128.749C61.5361 123.41 65.7285 117.77 68.3644 112.689C71.1778 114.332 74.2539 115.577 77.515 116.349C75.9746 121.798 75.0516 128.742 75.0516 136.305C75.0516 153.81 79.9959 168 86.0951 168C92.1943 168 97.1386 153.81 97.1386 136.305C97.1386 128.562 96.1712 121.468 94.5643 115.963C98.3366 114.886 101.836 113.168 104.935 110.935C107 117.091 112.073 124.768 119.256 131.906C131.711 144.284 145.794 150.357 150.71 145.471C155.627 140.585 149.516 126.59 137.06 114.213C129.442 106.642 121.216 101.43 114.85 99.6414C116.159 97.2079 117.172 94.5937 117.842 91.8464C123.693 94.7377 132.49 96.5771 142.329 96.5771C159.943 96.5771 174.222 90.6808 174.222 83.4075C174.222 76.1341 159.943 70.2379 142.329 70.2379C132.342 70.2379 123.427 72.1333 117.579 75.1004C116.847 72.4668 115.798 69.9642 114.474 67.6358C120.805 65.7826 128.916 60.6081 136.435 53.1363C148.89 40.7587 155.002 26.7639 150.085 21.878C145.169 16.9921 131.086 23.0653 118.631 35.4429C111.394 42.6341 106.299 50.3712 104.264 56.5506C101.338 54.5482 98.0743 52.9965 94.5761 51.9963Z" fill="url(#paint0_linear_55_146)"/>
<defs>
<linearGradient id="paint0_linear_55_146" x1="0" y1="84" x2="174.222" y2="84" gradientUnits="userSpaceOnUse">
<stop stop-color="#FF931E"/>
<stop offset="1" stop-color="#FCEE21"/>
</linearGradient>
</defs>
</svg>
