<svg width="250" height="35" viewBox="0 0 250 35" fill="none" xmlns="http://www.w3.org/2000/svg">
<g clip-path="url(#clip0_6_60)">
<path d="M0.32666 19.1398H1.13688C1.13688 20.8674 2.60705 23.4458 5.35136 23.4458C6.6255 23.4458 7.55334 22.5625 7.55334 21.4844C7.55334 20.5232 6.70391 19.8348 5.39056 19.1398L3.22779 17.9838C1.37211 16.9836 0.672966 15.3729 0.672966 14.1389C0.672966 12.0606 2.60705 10.6448 4.58034 10.6448C6.55363 10.6448 7.36385 11.5281 7.86698 11.5281C8.02379 11.5281 8.09567 11.2553 8.09567 10.6448H8.90589V15.1001H8.09567C8.09567 13.4895 6.9326 11.8723 4.96585 11.8723C3.6525 11.8723 2.99256 12.5672 2.99256 13.5219C2.99256 14.4767 3.6133 14.9443 5.35136 15.8665L7.20704 16.8667C8.90589 17.8279 9.87294 19.1723 9.87294 20.5557C9.87294 23.0951 7.78203 24.7448 5.27295 24.7448C3.53489 24.7448 2.18234 23.5173 1.64001 23.5173C1.2937 23.5173 1.13688 23.8225 1.13688 24.7448H0.32666V19.1333V19.1398Z" fill="black" stroke="#F7931E" stroke-miterlimit="10"/>
<path d="M16.9558 18.984V16.5615C16.9558 12.7166 16.4919 12.0671 13.9044 12.0671V11.3008H19.7067V18.7956C19.7067 21.2961 20.5561 22.9068 22.647 22.9068C24.1564 22.9068 26.8223 21.4844 26.8223 19.1009V16.5615C26.8223 12.7166 26.3191 12.0671 23.7317 12.0671V11.3008H29.5339V18.8346C29.5339 22.4846 30.1546 22.9457 32.1998 22.9457V23.6731L27.443 24.6343C27.247 24.2512 26.9007 22.9457 26.8223 22.2898C25.8552 23.2899 23.9996 24.7513 21.7584 24.7513C18.2038 24.7513 16.9624 22.2508 16.9624 18.984H16.9558Z" fill="black" stroke="#F7931E" stroke-miterlimit="10"/>
<path d="M36.362 23.2899C38.9168 23.2899 39.4134 22.634 39.4134 18.7956V16.8732C39.4134 13.0283 38.9103 12.4178 36.362 12.4178V11.6125L41.5043 10.6513C41.7003 11.0345 42.0466 12.6127 42.1643 13.418C43.2097 12.1126 44.987 10.6513 47.5418 10.6513C51.0245 10.6513 52.5665 13.1128 52.5665 16.3796V18.8021C52.5665 22.647 53.0304 23.2964 55.6179 23.2964V24.1018H46.7642V23.2964C49.2799 23.2964 49.8156 22.6405 49.8156 18.8021V16.5744C49.8156 14.074 48.927 12.4633 46.6074 12.4633C44.4839 12.4633 42.1577 14.1909 42.1577 16.3082V18.8086C42.1577 22.7639 42.4648 23.3029 44.8628 23.3029V24.1083H36.3555V23.3029L36.362 23.2899Z" fill="black" stroke="#F7931E" stroke-miterlimit="10"/>
<path d="M58.2054 17.6785C58.2054 13.7947 61.2569 10.6448 64.9355 10.6448C66.8696 10.6448 68.4901 11.4891 69.6531 12.9114V6.65056C69.6531 2.8057 69.1892 2.15624 66.6017 2.15624V1.35089L72.404 0.389681V18.8346C72.404 22.4846 73.0247 22.9457 75.0699 22.9457V23.6731L70.3131 24.6344C70.1236 24.2512 69.81 23.0172 69.6923 22.4067C68.6077 23.7511 67.0656 24.7513 64.9355 24.7513C61.2634 24.7513 58.2054 21.5624 58.2054 17.6785ZM69.6531 20.1725V15.2171C68.9605 13.4115 67.4904 12.184 65.7458 12.184C62.727 12.184 61.3353 14.6066 61.3353 17.6785C61.3353 20.7505 62.727 23.212 65.7458 23.212C67.4838 23.212 68.954 21.9845 69.6531 20.179V20.1725Z" fill="black" stroke="#F7931E" stroke-miterlimit="10"/>
<path d="M78.814 21.3675C78.814 18.1007 82.6429 16.6784 87.0469 15.912C87.0469 13.0283 86.6614 11.8788 84.4594 11.8788C83.5708 11.8788 82.2574 12.4958 82.2574 13.7233C82.2574 14.4896 81.6759 15.0677 80.9441 15.0677C80.173 15.0677 79.5915 14.4896 79.5915 13.7233C79.5915 11.8788 82.0287 10.6513 84.4986 10.6513C88.2492 10.6513 89.7977 12.2295 89.7977 15.8795V21.6858C89.7977 22.647 90.1048 23.186 90.6864 23.186C91.0719 23.186 91.4966 22.8808 91.771 22.608L92.3133 23.3354C91.5815 24.1018 90.6145 24.5239 89.7585 24.5239C88.2492 24.5239 87.3213 23.6796 87.1318 22.2963C85.237 23.9849 83.8452 24.6019 82.2966 24.6019C80.4017 24.6019 78.814 23.4133 78.814 21.374V21.3675ZM87.0534 21.0233V17.1005C83.3813 17.9448 81.7151 19.2113 81.7151 20.9064C81.7151 22.1339 82.5645 22.8678 83.5316 22.8678C84.3418 22.8678 85.2696 22.6015 87.0469 21.0233H87.0534Z" fill="black" stroke="#F7931E" stroke-miterlimit="10"/>
<path d="M96.5277 33.2008C96.5277 31.7006 98.2658 31.7006 99.468 28.7065L101.402 23.9004L96.959 14.3338C96.1487 12.6062 95.5672 12.0671 94.3715 12.0671V11.3008H101.213V12.0671C99.5138 12.0671 99.1217 12.4503 99.9777 14.3338L102.8 20.4842L105.277 14.3338C105.969 12.5672 105.741 12.0671 104.153 12.0671V11.3008H109.57V12.0671C108.374 12.0671 107.518 12.6062 106.825 14.3338L99.2851 33.0515C98.978 33.8178 98.4749 34.4738 97.8541 34.4738C97.3118 34.4738 96.5408 34.1686 96.5408 33.2073L96.5277 33.2008Z" fill="black" stroke="#F7931E" stroke-miterlimit="10"/>
<path d="M146.788 23.2899C149.343 23.2899 149.839 22.634 149.839 18.7956V12.6452H146.67V11.3008H149.839V7.61177C149.839 2.38355 153.008 0.389681 156.184 0.389681C158.739 0.389681 160.052 2.00686 160.052 3.23435C160.052 4.00073 159.627 4.61772 158.778 4.61772C156.883 4.61772 157.928 1.65615 155.491 1.65615C153.518 1.65615 152.59 3.19539 152.59 7.61177V11.3008H156.458V12.6452H152.59V18.7956C152.59 22.6405 153.054 23.2899 155.641 23.2899V24.0953H146.788V23.2899Z" fill="black" stroke="#F7931E" stroke-miterlimit="10"/>
<path d="M162.875 23.2899C165.462 23.2899 165.926 22.634 165.926 18.7956V6.65056C165.926 2.8057 165.462 2.15624 162.875 2.15624V1.35089L168.677 0.389681V18.7956C168.677 22.6405 169.18 23.2899 171.728 23.2899V24.0953H162.875V23.2899Z" fill="black" stroke="#F7931E" stroke-miterlimit="10"/>
<path d="M175.982 17.6785C175.982 13.7947 179.504 10.6448 183.79 10.6448C188.077 10.6448 191.598 13.7947 191.598 17.6785C191.598 21.5624 188.083 24.7513 183.79 24.7513C179.497 24.7513 175.982 21.5624 175.982 17.6785ZM188.469 17.6785C188.469 14.6066 186.999 12.1061 183.79 12.1061C180.582 12.1061 179.112 14.6066 179.112 17.6785C179.112 20.7505 180.621 23.251 183.79 23.251C186.959 23.251 188.469 20.7505 188.469 17.6785Z" fill="black" stroke="#F7931E" stroke-miterlimit="10"/>
<path d="M196.009 14.3338C195.277 12.6841 194.656 12.0671 193.382 12.0671V11.3008H200.223V12.0671C198.485 12.0671 198.25 12.4893 199.028 14.3338L201.615 20.6726L205.594 11.2943H206.366L210.273 20.6726L212.939 14.3338C213.638 12.6452 213.52 12.0671 211.815 12.0671V11.3008H217.225V12.0671C215.873 12.0671 215.213 12.6452 214.481 14.3338L209.959 24.7902H209.188L205.242 15.6847L201.295 24.7902H200.524L196.002 14.3338H196.009Z" fill="black" stroke="#F7931E" stroke-miterlimit="10"/>
<path d="M219.283 17.6785C219.283 13.6064 222.838 10.6448 226.438 10.6448C230.038 10.6448 232.626 13.4115 231.698 16.7173H222.38C221.917 20.3284 223.426 23.1341 227.405 23.1341C228.679 23.1341 230.535 22.4067 231.659 21.3675L232.351 22.2118C230.999 23.6342 228.64 24.7513 226.438 24.7513C222.184 24.7513 219.283 21.5624 219.283 17.6785ZM229.026 15.295C229.45 14.0675 228.797 12.184 226.242 12.184C224.582 12.184 223.151 13.4115 222.609 15.295H229.026Z" fill="black" stroke="#F7931E" stroke-miterlimit="10"/>
<path d="M236.762 23.2899C239.317 23.2899 239.813 22.634 239.813 18.7956V16.8732C239.813 13.0283 239.31 12.4178 236.762 12.4178V11.6125L241.904 10.6513C242.094 11.0345 242.447 12.6127 242.564 13.418C243.335 11.8788 245.08 10.6513 246.622 10.6513C248.745 10.6513 249.673 12.0736 249.673 13.0348C249.673 13.8791 249.327 14.8404 248.125 14.8404C247.393 14.8404 246.772 14.1844 246.772 13.457C246.772 12.6516 246.308 12.1905 245.537 12.1905C244.649 12.1905 242.558 13.6129 242.558 16.6849V18.7956C242.558 22.6405 243.022 23.2899 245.609 23.2899V24.0953H236.755V23.2899H236.762Z" fill="black" stroke="#F7931E" stroke-miterlimit="10"/>
<path d="M127.532 30.5315C128.434 30.5315 129.165 28.4321 129.165 25.8424C129.165 23.2526 128.434 21.1532 127.532 21.1532C126.63 21.1532 125.898 23.2526 125.898 25.8424C125.898 28.4321 126.63 30.5315 127.532 30.5315Z" fill="#FCEE21" stroke="#F7931E" stroke-width="0.5" stroke-miterlimit="10"/>
<path d="M123.104 24.7245C124.947 22.8933 125.851 20.8228 125.123 20.0999C124.396 19.3771 122.313 20.2756 120.471 22.1068C118.629 23.9381 117.725 26.0085 118.452 26.7314C119.179 27.4543 121.262 26.5557 123.104 24.7245Z" fill="#FCEE21" stroke="#F7931E" stroke-width="0.5" stroke-miterlimit="10"/>
<path d="M119.515 19.9647C122.12 19.9647 124.232 19.0923 124.232 18.0163C124.232 16.9402 122.12 16.0679 119.515 16.0679C116.909 16.0679 114.797 16.9402 114.797 18.0163C114.797 19.0923 116.909 19.9647 119.515 19.9647Z" fill="#FCEE21" stroke="#F7931E" stroke-width="0.5" stroke-miterlimit="10"/>
<path d="M135.85 19.9647C138.455 19.9647 140.567 19.0923 140.567 18.0163C140.567 16.9402 138.455 16.0679 135.85 16.0679C133.244 16.0679 131.132 16.9402 131.132 18.0163C131.132 19.0923 133.244 19.9647 135.85 19.9647Z" fill="#FCEE21" stroke="#F7931E" stroke-width="0.5" stroke-miterlimit="10"/>
<path d="M127.532 15.0547C128.434 15.0547 129.165 12.9553 129.165 10.3655C129.165 7.77577 128.434 5.67636 127.532 5.67636C126.63 5.67636 125.898 7.77577 125.898 10.3655C125.898 12.9553 126.63 15.0547 127.532 15.0547Z" fill="#FCEE21" stroke="#F7931E" stroke-width="0.5" stroke-miterlimit="10"/>
<path d="M137.09 27.1984C137.817 26.4756 136.913 24.4051 135.07 22.5738C133.228 20.7426 131.145 19.8441 130.418 20.5669C129.691 21.2898 130.595 23.3603 132.437 25.1915C134.279 27.0227 136.362 27.9213 137.09 27.1984Z" fill="#FCEE21" stroke="#F7931E" stroke-width="0.5" stroke-miterlimit="10"/>
<path d="M124.74 15.5435C125.468 14.8206 124.564 12.7501 122.721 10.9189C120.879 9.08767 118.796 8.18915 118.069 8.91201C117.341 9.63486 118.245 11.7054 120.088 13.5366C121.93 15.3678 124.013 16.2663 124.74 15.5435Z" fill="#FCEE21" stroke="#F7931E" stroke-width="0.5" stroke-miterlimit="10"/>
<path d="M134.978 13.5377C136.82 11.7065 137.724 9.636 136.997 8.91315C136.27 8.19029 134.187 9.08881 132.345 10.92C130.502 12.7513 129.598 14.8218 130.325 15.5446C131.053 16.2675 133.136 15.369 134.978 13.5377Z" fill="#FCEE21" stroke="#F7931E" stroke-width="0.5" stroke-miterlimit="10"/>
<path d="M127.414 23.0237C130.15 23.0237 132.367 20.8196 132.367 18.1007C132.367 15.3818 130.15 13.1777 127.414 13.1777C124.679 13.1777 122.461 15.3818 122.461 18.1007C122.461 20.8196 124.679 23.0237 127.414 23.0237Z" fill="#FF931E"/>
</g>
<defs>
<clipPath id="clip0_6_60">
<rect width="250" height="34.7985" fill="white"/>
</clipPath>
</defs>
</svg>
