<svg width="250" height="35" viewBox="0 0 250 35" fill="none" xmlns="http://www.w3.org/2000/svg">
<g clip-path="url(#clip0_24_1085)">
<path d="M-0.17334 19.1398V19.6398V24.7448V25.2448H0.32666H1.13688H1.63688V24.7448C1.63688 24.3622 1.66666 24.1482 1.69918 24.0362C1.70252 24.0373 1.706 24.0386 1.70962 24.0399C1.77502 24.0637 1.85911 24.1016 1.96848 24.1563C2.06284 24.2035 2.16531 24.2576 2.28169 24.3191C2.29952 24.3285 2.31767 24.3381 2.33617 24.3478C2.47305 24.4201 2.62472 24.4996 2.78719 24.5796C3.43325 24.8977 4.28882 25.2448 5.27295 25.2448C7.99203 25.2448 10.3729 23.433 10.3729 20.5557C10.3729 18.9235 9.23829 17.4415 7.45326 16.4315L7.45331 16.4314L7.44426 16.4266L5.58859 15.4264L5.58859 15.4264L5.58572 15.4248C4.70824 14.9592 4.17902 14.6407 3.86338 14.3428C3.58558 14.0806 3.49256 13.8544 3.49256 13.5219C3.49256 13.1647 3.61234 12.8967 3.81919 12.7125C4.03202 12.523 4.39399 12.3723 4.96585 12.3723C6.60131 12.3723 7.59567 13.707 7.59567 15.1001V15.6001H8.09567H8.90589H9.40589V15.1001V10.6448V10.1448H8.90589H8.09567H7.59567V10.6448C7.59567 10.752 7.59324 10.8423 7.58916 10.9176C7.55184 10.8998 7.50946 10.8791 7.46319 10.8565C7.32456 10.7888 7.1509 10.704 6.97295 10.6273C6.41262 10.3857 5.64909 10.1448 4.58034 10.1448C2.4158 10.1448 0.172966 11.7066 0.172966 14.1389C0.172966 15.5565 0.972742 17.3364 2.99056 18.4239L2.99208 18.4247L5.15486 19.5808L5.15672 19.5818C5.80109 19.9227 6.28759 20.2403 6.60969 20.5646C6.92183 20.8789 7.05334 21.1716 7.05334 21.4844C7.05334 22.2425 6.39538 22.9458 5.35136 22.9458C4.15237 22.9458 3.23256 22.3877 2.60055 21.6223C1.95856 20.8448 1.63688 19.8792 1.63688 19.1398V18.6398H1.13688H0.32666V19.1333H-0.17334V19.1398ZM7.54995 11.2099C7.54994 11.2099 7.55024 11.209 7.55091 11.2075C7.55031 11.2092 7.54997 11.21 7.54995 11.2099Z" stroke="#FAFAFA" stroke-miterlimit="10"/>
<path d="M16.4558 18.984V19.484H16.4721C16.531 20.9752 16.864 22.3473 17.6236 23.3875C18.4878 24.571 19.8495 25.2512 21.7584 25.2512C23.7358 25.2512 25.4071 24.218 26.5016 23.2779C26.5343 23.4171 26.5693 23.5569 26.6052 23.6924C26.725 24.1445 26.8721 24.6163 26.9979 24.8621L27.1705 25.1995L27.542 25.1244L32.2988 24.1632L32.6998 24.0822V23.6731V22.9457V22.4457H32.1998C31.1688 22.4457 30.7551 22.3138 30.5059 21.9671C30.3645 21.7704 30.2407 21.4569 30.1564 20.9369C30.0726 20.4195 30.0339 19.7374 30.0339 18.8346V11.3008V10.8008H29.5339H23.7317H23.2317V11.3008V12.0671V12.5671H23.7317C25.0344 12.5671 25.5493 12.7465 25.8374 13.1588C25.9978 13.3885 26.1258 13.7417 26.2084 14.3092C26.2907 14.8739 26.3223 15.606 26.3223 16.5614V19.1009C26.3223 20.089 25.7722 20.908 24.997 21.5004C24.2132 22.0994 23.2735 22.4068 22.647 22.4068C21.752 22.4068 21.1816 22.0744 20.8096 21.5128C20.4147 20.9165 20.2067 20.0043 20.2067 18.7956V11.3008V10.8008H19.7067H13.9044H13.4044V11.3008V12.0671V12.5671H13.9044C15.2082 12.5671 15.709 12.747 15.9876 13.1546C16.1443 13.3838 16.2683 13.7372 16.3477 14.3062C16.4266 14.8721 16.4558 15.6051 16.4558 16.5614V18.984Z" stroke="#FAFAFA" stroke-miterlimit="10"/>
<path d="M36.362 22.79H36.0539L35.9154 23.0652L35.9088 23.0782L35.8555 23.1842V23.3029V24.1083V24.6083H36.3555H44.8628H45.3628V24.1083V23.3029V22.8029H44.8628C43.642 22.8029 43.2576 22.6458 43.0401 22.2822C42.9075 22.0608 42.8039 21.7088 42.7402 21.1252C42.6772 20.5478 42.6577 19.7962 42.6577 18.8086V16.3082C42.6577 15.4398 43.1367 14.6088 43.9038 13.9779C44.6707 13.3472 45.6731 12.9633 46.6074 12.9633C47.6372 12.9633 48.2735 13.3117 48.6748 13.8723C49.0985 14.464 49.3156 15.3681 49.3156 16.5744V18.8021C49.3156 19.755 49.2821 20.4861 49.1981 21.05C49.1137 21.6167 48.9841 21.9716 48.823 22.2029C48.5342 22.6175 48.0256 22.7964 46.7642 22.7964H46.2642V23.2964V24.1018V24.6018H46.7642H55.6179H56.1179V24.1018V23.2964V22.7964H55.6179C54.3141 22.7964 53.8133 22.6166 53.5347 22.209C53.3781 21.9798 53.254 21.6264 53.1746 21.0573C53.0957 20.4915 53.0665 19.7585 53.0665 18.8021V16.3796C53.0665 14.6762 52.6654 13.119 51.7502 11.9776C50.8213 10.8191 49.4124 10.1513 47.5418 10.1513C45.2939 10.1513 43.6135 11.1988 42.4741 12.3268C42.4352 12.1387 42.3935 11.9479 42.3508 11.7635C42.2867 11.4867 42.2191 11.2192 42.154 10.9934C42.0924 10.7798 42.0228 10.567 41.9495 10.4236L41.7794 10.0912L41.4124 10.1598L36.2701 11.121L35.862 11.1973V11.6125V12.4178V12.9178H36.362C37.6491 12.9178 38.152 13.0889 38.434 13.4909C38.5914 13.7152 38.7181 14.063 38.8002 14.627C38.8818 15.188 38.9134 15.9178 38.9134 16.8732V18.7956C38.9134 19.7495 38.8822 20.4812 38.801 21.046C38.7193 21.6138 38.5928 21.9681 38.434 22.1985C38.1507 22.6098 37.6459 22.79 36.362 22.79Z" stroke="#FAFAFA" stroke-miterlimit="10"/>
<path d="M64.9355 25.2513C66.8378 25.2513 68.3096 24.5101 69.4172 23.4467C69.4418 23.5434 69.4672 23.6405 69.493 23.736C69.6077 24.1608 69.7448 24.6131 69.8649 24.856L70.0353 25.2006L70.4121 25.1244L75.1689 24.1632L75.5699 24.0822V23.6731V22.9457V22.4457H75.0699C74.0389 22.4457 73.6252 22.3138 73.376 21.9671C73.2346 21.7704 73.1107 21.4569 73.0265 20.9369C72.9427 20.4195 72.904 19.7374 72.904 18.8346V0.389679V-0.199967L72.3223 -0.103598L66.52 0.857616L66.1017 0.926909V1.35089V2.15623V2.65623H66.6017C67.9055 2.65623 68.4064 2.83607 68.6849 3.24369C68.8416 3.47288 68.9656 3.82628 69.045 4.39535C69.1239 4.96118 69.1531 5.69423 69.1531 6.65056V11.686C68.0074 10.7078 66.574 10.1448 64.9355 10.1448C60.9619 10.1448 57.7054 13.5377 57.7054 17.6785C57.7054 21.816 60.9652 25.2513 64.9355 25.2513ZM65.7458 12.684C67.206 12.684 68.5025 13.695 69.1531 15.3117V20.0835C68.4959 21.7018 67.1989 22.712 65.7458 22.712C64.392 22.712 63.4417 22.1697 62.8131 21.3036C62.1695 20.4167 61.8353 19.1484 61.8353 17.6785C61.8353 16.2087 62.1695 14.9512 62.8118 14.0749C63.439 13.2191 64.389 12.684 65.7458 12.684Z" stroke="#FAFAFA" stroke-miterlimit="10"/>
<path d="M86.8488 23.1954C87.0192 23.6298 87.2766 24.0075 87.6233 24.3072C88.1761 24.785 88.9095 25.0239 89.7585 25.0239C90.7685 25.0239 91.8615 24.5326 92.675 23.6807L92.9667 23.3752L92.7142 23.0366L92.1719 22.3091L91.8273 21.847L91.4185 22.2534C91.3038 22.3674 91.162 22.4834 91.0178 22.5678C90.8675 22.6557 90.7546 22.686 90.6864 22.686C90.5844 22.686 90.5209 22.6553 90.4553 22.5435C90.3705 22.3988 90.2977 22.1268 90.2977 21.6858V15.8795C90.2977 13.9979 89.9006 12.5296 88.9071 11.542C87.9144 10.5553 86.4294 10.1513 84.4986 10.1513C83.1891 10.1513 81.8724 10.4751 80.8663 11.0641C79.8662 11.6496 79.0915 12.5541 79.0915 13.7233C79.0915 14.7686 79.8998 15.5677 80.9441 15.5677C81.9588 15.5677 82.7574 14.759 82.7574 13.7233C82.7574 13.3127 82.9696 12.99 83.312 12.7503C83.6648 12.5032 84.1146 12.3788 84.4594 12.3788C84.9718 12.3788 85.332 12.4465 85.5905 12.5608C85.8365 12.6695 86.0111 12.829 86.1452 13.0628C86.2863 13.3088 86.3908 13.6521 86.4569 14.1333C86.5095 14.5157 86.5354 14.9658 86.5438 15.4943C84.4789 15.8768 82.5167 16.4207 81.0313 17.2677C79.4319 18.1797 78.314 19.491 78.314 21.3675V21.374C78.314 22.534 78.7703 23.48 79.5163 24.1297C80.2547 24.7728 81.2477 25.1019 82.2966 25.1019C83.8301 25.1019 85.1936 24.5442 86.8488 23.1954ZM86.5534 17.7374V20.7912C84.9305 22.1996 84.1481 22.3678 83.5316 22.3678C82.8458 22.3678 82.2151 21.8629 82.2151 20.9064C82.2151 20.2555 82.5222 19.653 83.3005 19.0894C84.0036 18.5802 85.0676 18.1238 86.5534 17.7374Z" stroke="#FAFAFA" stroke-miterlimit="10"/>
<path d="M96.0277 33.2008V33.5107L96.0649 33.5292C96.1384 34.0016 96.3736 34.3594 96.693 34.6002C97.0601 34.877 97.502 34.9738 97.8541 34.9738C98.353 34.9738 98.7571 34.7089 99.0532 34.3906C99.3501 34.0716 99.5812 33.6566 99.749 33.2379C99.7491 33.2378 99.7491 33.2376 99.7492 33.2374L107.289 14.5206L107.289 14.5198C107.619 13.6989 107.963 13.2222 108.316 12.947C108.657 12.6812 109.053 12.5671 109.57 12.5671H110.07V12.0671V11.3008V10.8008H109.57H104.153H103.653V11.3008V12.0671V12.5671H104.153C104.534 12.5671 104.784 12.5984 104.944 12.6493C105.091 12.696 105.113 12.7425 105.121 12.7575L105.121 12.7576C105.138 12.7934 105.167 12.8981 105.124 13.149C105.082 13.3941 104.981 13.7189 104.812 14.1492L102.77 19.2201L100.433 14.1269C100.433 14.1266 100.433 14.1263 100.433 14.1261C100.224 13.6675 100.108 13.3336 100.062 13.0918C100.015 12.8468 100.055 12.7691 100.063 12.7558C100.068 12.7477 100.104 12.6913 100.303 12.6416C100.504 12.5915 100.798 12.5671 101.213 12.5671H101.713V12.0671V11.3008V10.8008H101.213H94.3715H93.8715V11.3008V12.0671V12.5671H94.3715C94.8805 12.5671 95.1958 12.6768 95.4783 12.927C95.7922 13.2048 96.1044 13.6894 96.5059 14.5452C96.506 14.5455 96.5061 14.5458 96.5063 14.5461L100.857 23.9147L99.0042 28.5198L99.004 28.5202C98.4401 29.9245 97.7605 30.6154 97.2006 31.1533C97.1633 31.1891 97.1256 31.225 97.0877 31.261C96.5718 31.7515 96.0277 32.2688 96.0277 33.2008Z" stroke="#FAFAFA" stroke-miterlimit="10"/>
<path d="M146.788 22.7899H146.288V23.2899V24.0953V24.5953H146.788H155.641H156.141V24.0953V23.2899V22.7899H155.641C154.338 22.7899 153.837 22.6101 153.558 22.2025C153.402 21.9733 153.278 21.6199 153.198 21.0508C153.119 20.485 153.09 19.752 153.09 18.7956V13.1452H156.458H156.958V12.6452V11.3008V10.8008H156.458H153.09V7.61177C153.09 5.41562 153.325 4.02966 153.746 3.20529C153.95 2.80572 154.19 2.55386 154.458 2.39719C154.728 2.23931 155.063 2.15614 155.491 2.15614C155.985 2.15614 156.243 2.30021 156.411 2.47031C156.603 2.6647 156.729 2.94198 156.87 3.31388C156.886 3.3556 156.902 3.39934 156.919 3.44464C157.035 3.75913 157.179 4.14832 157.406 4.4534C157.703 4.85229 158.139 5.11772 158.778 5.11772C159.334 5.11772 159.798 4.91007 160.115 4.53709C160.422 4.17532 160.552 3.70472 160.552 3.23435C160.552 1.66316 158.942 -0.110321 156.184 -0.110321C154.495 -0.110321 152.774 0.420489 151.473 1.68101C150.166 2.94685 149.339 4.89342 149.339 7.61177V10.8008H146.67H146.17V11.3008V12.6452V13.1452H146.67H149.339V18.7956C149.339 19.7495 149.308 20.4812 149.227 21.046C149.145 21.6138 149.019 21.968 148.86 22.1985C148.576 22.6098 148.072 22.7899 146.788 22.7899Z" stroke="#FAFAFA" stroke-miterlimit="10"/>
<path d="M162.875 22.7899H162.375V23.2899V24.0953V24.5953H162.875H171.728H172.228V24.0953V23.2899V22.7899H171.728C170.447 22.7899 169.942 22.6113 169.658 22.2004C169.499 21.9703 169.372 21.6163 169.29 21.0484C169.209 20.4834 169.177 19.751 169.177 18.7956V0.389679V-0.199967L168.595 -0.103598L162.793 0.857616L162.375 0.926909V1.35089V2.15623V2.65623H162.875C164.179 2.65623 164.679 2.83607 164.958 3.24369C165.115 3.47288 165.239 3.82628 165.318 4.39535C165.397 4.96118 165.426 5.69423 165.426 6.65056V18.7956C165.426 19.7503 165.397 20.4825 165.318 21.048C165.239 21.6168 165.115 21.9706 164.958 22.2003C164.679 22.6088 164.178 22.7899 162.875 22.7899Z" stroke="#FAFAFA" stroke-miterlimit="10"/>
<path d="M183.79 10.1448C179.279 10.1448 175.482 13.4697 175.482 17.6785C175.482 21.8837 179.269 25.2513 183.79 25.2513C188.312 25.2513 192.098 21.8837 192.098 17.6785C192.098 13.4697 188.301 10.1448 183.79 10.1448ZM183.79 12.6061C185.248 12.6061 186.266 13.1658 186.935 14.0433C187.617 14.9391 187.969 16.2138 187.969 17.6785C187.969 19.1406 187.609 20.4156 186.921 21.3126C186.247 22.1924 185.227 22.751 183.79 22.751C182.354 22.751 181.334 22.1924 180.66 21.3126C179.972 20.4156 179.612 19.1406 179.612 17.6785C179.612 16.2138 179.963 14.9391 180.646 14.0433C181.314 13.1658 182.333 12.6061 183.79 12.6061Z" stroke="#FAFAFA" stroke-miterlimit="10"/>
<path d="M194.567 12.9557C194.852 13.2084 195.121 13.6154 195.43 14.2685L195.544 14.5322L200.065 24.9887L200.196 25.2902H200.524H201.295H201.623L201.754 24.989L205.242 16.942L208.729 24.989L208.86 25.2902H209.188H209.959H210.288L210.418 24.9887L214.94 14.5326C215.298 13.7058 215.608 13.229 215.941 12.9509C216.25 12.6921 216.627 12.5671 217.225 12.5671H217.725V12.0671V11.3007V10.8007H217.225H211.815H211.315V11.3007V12.0671V12.5671H211.815C212.223 12.5671 212.486 12.6031 212.649 12.6578C212.794 12.7065 212.814 12.7527 212.82 12.7664L212.82 12.7672C212.837 12.8054 212.861 12.9138 212.808 13.1654C212.758 13.41 212.649 13.7277 212.477 14.1412C212.477 14.1417 212.477 14.1421 212.477 14.1425L210.275 19.3777L206.827 11.102L206.699 10.7943H206.366H205.594H205.264L205.134 11.099L201.624 19.3714L199.491 14.1448L199.491 14.1448L199.489 14.1395C199.297 13.6863 199.182 13.3513 199.132 13.1029C199.081 12.8472 199.115 12.7605 199.124 12.7437C199.126 12.7384 199.132 12.7284 199.155 12.7128C199.182 12.6947 199.233 12.6691 199.324 12.6447C199.512 12.594 199.799 12.5671 200.223 12.5671H200.723V12.0671V11.3007V10.8007H200.223H193.382H192.882V11.3007V12.0671V12.5671H193.382C193.926 12.5671 194.272 12.6939 194.567 12.9557Z" stroke="#FAFAFA" stroke-miterlimit="10"/>
<path d="M231.698 17.2173H232.077L232.179 16.8524C232.69 15.0341 232.233 13.3403 231.14 12.1094C230.054 10.886 228.365 10.1448 226.438 10.1448C222.595 10.1448 218.783 13.2983 218.783 17.6785C218.783 21.8289 221.899 25.2513 226.438 25.2513C228.785 25.2513 231.272 24.0722 232.714 22.5564L233.018 22.2363L232.738 21.8947L232.045 21.0504L231.709 20.6402L231.319 21.0004C230.811 21.4706 230.121 21.8831 229.399 22.1776C228.675 22.4732 227.959 22.6341 227.405 22.6341C225.542 22.6341 224.339 21.9845 223.635 20.9908C222.977 20.0623 222.702 18.7591 222.83 17.2173H231.698ZM226.242 12.684C227.388 12.684 228.02 13.0991 228.339 13.5626C228.597 13.9378 228.683 14.3893 228.631 14.795H223.322C223.919 13.4605 225.037 12.684 226.242 12.684Z" stroke="#FAFAFA" stroke-miterlimit="10"/>
<path d="M236.262 12.4178V12.9178H236.762C238.049 12.9178 238.552 13.0889 238.834 13.4909C238.991 13.7152 239.118 14.063 239.2 14.627C239.282 15.188 239.313 15.9178 239.313 16.8732V18.7956C239.313 19.7495 239.282 20.4812 239.201 21.046C239.119 21.6138 238.993 21.9681 238.834 22.1985C238.551 22.6098 238.046 22.79 236.762 22.79H236.755H236.255V23.29V24.0953V24.5953H236.755H245.609H246.109V24.0953V23.29V22.79H245.609C244.305 22.79 243.804 22.6101 243.526 22.2025C243.369 21.9733 243.245 21.6199 243.166 21.0508C243.087 20.485 243.058 19.752 243.058 18.7956V16.6849C243.058 15.2691 243.537 14.2607 244.094 13.6111C244.374 13.2838 244.674 13.0478 244.943 12.8961C245.22 12.7391 245.432 12.6905 245.537 12.6905C245.823 12.6905 245.99 12.7738 246.087 12.8723C246.185 12.9718 246.272 13.1493 246.272 13.457C246.272 14.4449 247.101 15.3404 248.125 15.3404C248.882 15.3404 249.427 15.0257 249.762 14.5367C250.077 14.0767 250.173 13.5123 250.173 13.0348C250.173 11.7767 249 10.1513 246.622 10.1513C245.724 10.1513 244.805 10.5054 244.02 11.0456C243.584 11.3462 243.177 11.7119 242.829 12.1234C242.803 12.0022 242.776 11.8812 242.748 11.7628C242.684 11.4862 242.616 11.2191 242.551 10.994C242.49 10.7804 242.422 10.5703 242.352 10.4297L242.185 10.0902L241.812 10.1598L236.67 11.121L236.262 11.1973V11.6125V12.4178Z" stroke="#FAFAFA" stroke-miterlimit="10"/>
<path d="M127.532 30.5315C128.434 30.5315 129.165 28.4321 129.165 25.8424C129.165 23.2526 128.434 21.1532 127.532 21.1532C126.63 21.1532 125.898 23.2526 125.898 25.8424C125.898 28.4321 126.63 30.5315 127.532 30.5315Z" stroke="#FAFAFA" stroke-width="0.5" stroke-miterlimit="10"/>
<path d="M123.104 24.7245C124.947 22.8933 125.851 20.8228 125.123 20.0999C124.396 19.3771 122.313 20.2756 120.471 22.1068C118.629 23.9381 117.725 26.0086 118.452 26.7314C119.179 27.4543 121.262 26.5557 123.104 24.7245Z" stroke="#FAFAFA" stroke-width="0.5" stroke-miterlimit="10"/>
<path d="M119.515 19.9647C122.12 19.9647 124.232 19.0923 124.232 18.0163C124.232 16.9402 122.12 16.0679 119.515 16.0679C116.909 16.0679 114.797 16.9402 114.797 18.0163C114.797 19.0923 116.909 19.9647 119.515 19.9647Z" stroke="#FAFAFA" stroke-width="0.5" stroke-miterlimit="10"/>
<path d="M135.85 19.9647C138.455 19.9647 140.567 19.0923 140.567 18.0163C140.567 16.9402 138.455 16.0679 135.85 16.0679C133.244 16.0679 131.132 16.9402 131.132 18.0163C131.132 19.0923 133.244 19.9647 135.85 19.9647Z" stroke="#FAFAFA" stroke-width="0.5" stroke-miterlimit="10"/>
<path d="M127.532 15.0547C128.434 15.0547 129.165 12.9553 129.165 10.3655C129.165 7.77577 128.434 5.67636 127.532 5.67636C126.63 5.67636 125.898 7.77577 125.898 10.3655C125.898 12.9553 126.63 15.0547 127.532 15.0547Z" stroke="#FAFAFA" stroke-width="0.5" stroke-miterlimit="10"/>
<path d="M137.09 27.1984C137.817 26.4756 136.913 24.4051 135.07 22.5738C133.228 20.7426 131.145 19.8441 130.418 20.5669C129.691 21.2898 130.595 23.3603 132.437 25.1915C134.279 27.0227 136.362 27.9213 137.09 27.1984Z" stroke="#FAFAFA" stroke-width="0.5" stroke-miterlimit="10"/>
<path d="M124.74 15.5435C125.468 14.8206 124.564 12.7501 122.721 10.9189C120.879 9.08768 118.796 8.18916 118.069 8.91202C117.341 9.63487 118.245 11.7054 120.088 13.5366C121.93 15.3678 124.013 16.2663 124.74 15.5435Z" stroke="#FAFAFA" stroke-width="0.5" stroke-miterlimit="10"/>
<path d="M134.978 13.5377C136.82 11.7065 137.724 9.636 136.997 8.91314C136.27 8.19029 134.187 9.08881 132.345 10.92C130.502 12.7513 129.598 14.8218 130.325 15.5446C131.053 16.2675 133.136 15.369 134.978 13.5377Z" stroke="#FAFAFA" stroke-width="0.5" stroke-miterlimit="10"/>
<path d="M132.117 18.1007C132.117 20.6801 130.013 22.7737 127.414 22.7737C124.816 22.7737 122.711 20.6801 122.711 18.1007C122.711 15.5213 124.816 13.4277 127.414 13.4277C130.013 13.4277 132.117 15.5213 132.117 18.1007Z" fill="#FAFAFA" stroke="#FAFAFA" stroke-width="0.5"/>
</g>
<defs>
<clipPath id="clip0_24_1085">
<rect width="250" height="34.7985" fill="white"/>
</clipPath>
</defs>
</svg>
