<svg width="240" height="240" viewBox="0 0 240 240" fill="none" xmlns="http://www.w3.org/2000/svg">
<rect width="240" height="240" fill="url(#paint0_linear_84_125)"/>
<path d="M78.096 119.44V120.544H84.024V119.44H78.096ZM74.88 116.944H87.432V123.04H74.88V116.944ZM79.104 122.032L83.088 122.224C82.584 123.568 81.936 124.792 81.48 125.632L78.432 125.248C78.72 124.24 79.008 122.992 79.104 122.032ZM72.696 124.24H89.904V132.352H86.424V127.216H76.008V132.352H72.696V124.24ZM74.592 128.656H87.888V131.632H74.592V128.656ZM70.848 113.2H91.656V118.552H88.296V116.128H74.016V118.552H70.848V113.2ZM86.688 109.552L90.48 110.656C89.424 112.048 88.392 113.392 87.576 114.28L84.72 113.248C85.44 112.216 86.256 110.704 86.688 109.552ZM72.12 111.088L75.144 109.816C75.936 110.704 76.848 111.952 77.232 112.84L74.016 114.208C73.704 113.368 72.864 112.048 72.12 111.088ZM78.144 110.416L81.216 109.36C81.864 110.296 82.656 111.616 82.992 112.48L79.752 113.656C79.488 112.792 78.768 111.424 78.144 110.416ZM96.288 124.096H117.912V126.928H96.288V124.096ZM96.336 113.2H117.84V116.032H96.336V113.2ZM97.32 117.592H116.88V120.28H97.32V117.592ZM98.496 120.952H115.8V123.424H98.496V120.952ZM105.288 118.984H108.744V132.28H105.288V118.984ZM103.272 109.456H106.512V114.544H103.272V109.456ZM107.664 109.456H110.952V114.328H107.664V109.456ZM104.784 125.392L107.52 126.616C105.216 129.112 101.496 131.104 97.728 132.064C97.248 131.224 96.24 129.88 95.496 129.16C99.144 128.512 102.864 127.096 104.784 125.392ZM109.32 125.32C111.216 127.072 114.792 128.368 118.608 128.896C117.816 129.64 116.784 131.104 116.256 132.064C112.368 131.128 108.888 129.136 106.632 126.376L109.32 125.32ZM113.16 109.6L116.832 110.44C116.016 111.76 115.248 112.984 114.648 113.824L111.816 112.984C112.32 112.024 112.872 110.632 113.16 109.6ZM110.016 114.784L113.736 115.624C113.04 116.8 112.416 117.856 111.936 118.6L108.96 117.784C109.344 116.896 109.8 115.696 110.016 114.784ZM97.92 110.512L100.92 109.504C101.568 110.512 102.312 111.904 102.624 112.816L99.456 113.944C99.216 113.032 98.52 111.592 97.92 110.512ZM100.92 115.984L104.328 115.48C104.664 116.104 105.072 116.968 105.24 117.544L101.664 118.12C101.544 117.568 101.208 116.632 100.92 115.984ZM131.328 111.856H143.76V114.856H131.328V111.856ZM130.656 116.44H144.288V119.488H130.656V116.44ZM130.656 121.144H144.168V124.168H130.656V121.144ZM135.744 109.456H139.176V118.432H135.744V109.456ZM138.72 119.416H142.128V128.728C142.128 130.312 141.84 131.176 140.784 131.68C139.728 132.184 138.384 132.256 136.656 132.256C136.536 131.296 136.032 129.904 135.576 128.992C136.584 129.04 137.88 129.04 138.24 129.04C138.6 129.04 138.72 128.968 138.72 128.656V119.416ZM131.328 125.752L134.112 124.168C135.168 125.296 136.416 126.832 136.92 127.984L133.92 129.712C133.512 128.608 132.36 126.952 131.328 125.752ZM123.936 110.896H130.224V127.672H123.936V124.576H126.984V113.992H123.936V110.896ZM124.128 117.616H128.568V120.64H124.128V117.616ZM122.304 110.896H125.52V129.904H122.304V110.896ZM155.784 124.096H161.952V126.52H155.784V124.096ZM155.568 120.568H163.608V130.048H155.568V127.528H160.344V123.088H155.568V120.568ZM154.152 120.568H157.296V131.272H154.152V120.568ZM150.36 113.632H156V115.936H150.36V113.632ZM161.544 113.632H167.184V115.936H161.544V113.632ZM165.768 110.344H169.296V128.296C169.296 130.072 168.96 131.056 167.904 131.632C166.824 132.208 165.384 132.28 163.272 132.28C163.152 131.296 162.648 129.664 162.168 128.728C163.296 128.824 164.76 128.8 165.192 128.8C165.624 128.8 165.768 128.656 165.768 128.248V110.344ZM150.648 110.344H158.184V119.32H150.648V116.872H154.92V112.816H150.648V110.344ZM167.664 110.344V112.816H162.816V116.944H167.664V119.392H159.504V110.344H167.664ZM148.632 110.344H152.088V132.28H148.632V110.344Z" fill="#FAFAFA"/>
<defs>
<linearGradient id="paint0_linear_84_125" x1="0" y1="120" x2="240" y2="120" gradientUnits="userSpaceOnUse">
<stop stop-color="#FF931E"/>
<stop offset="1" stop-color="#FCEE21"/>
</linearGradient>
</defs>
</svg>
