<svg width="375" height="35" viewBox="0 0 375 35" fill="none" xmlns="http://www.w3.org/2000/svg">
<mask id="mask0_96_218" style="mask-type:alpha" maskUnits="userSpaceOnUse" x="0" y="0" width="375" height="35">
<rect width="375" height="35" fill="#D9D9D9"/>
</mask>
<g mask="url(#mask0_96_218)">
<path fill-rule="evenodd" clip-rule="evenodd" d="M65.5 70C93.238 70 116.949 60.7868 126.5 47.7748C136.051 60.7868 159.762 70 187.5 70C215.238 70 238.949 60.7868 248.5 47.7748C258.051 60.7868 281.762 70 309.5 70C345.675 70 375 54.33 375 35C375 15.67 345.675 0 309.5 0C281.762 0 258.051 9.21325 248.5 22.2252C238.949 9.21325 215.238 0 187.5 0C159.762 0 136.051 9.21325 126.5 22.2252C116.949 9.21325 93.238 0 65.5 0C29.3253 0 0 15.67 0 35C0 54.33 29.3253 70 65.5 70Z" fill="#FFD921"/>
</g>
</svg>
