<svg width="375" height="35" viewBox="0 0 375 35" fill="none" xmlns="http://www.w3.org/2000/svg">
<mask id="mask0_96_219" style="mask-type:alpha" maskUnits="userSpaceOnUse" x="0" y="0" width="375" height="35">
<rect width="375" height="35" fill="#D9D9D9"/>
</mask>
<g mask="url(#mask0_96_219)">
<path fill-rule="evenodd" clip-rule="evenodd" d="M65.5 35C93.238 35 116.949 25.7868 126.5 12.7748C136.051 25.7868 159.762 35 187.5 35C215.238 35 238.949 25.7868 248.5 12.7748C258.051 25.7868 281.762 35 309.5 35C345.675 35 375 19.33 375 0C375 -19.33 345.675 -35 309.5 -35C281.762 -35 258.051 -25.7868 248.5 -12.7748C238.949 -25.7868 215.238 -35 187.5 -35C159.762 -35 136.051 -25.7868 126.5 -12.7748C116.949 -25.7868 93.238 -35 65.5 -35C29.3253 -35 0 -19.33 0 0C0 19.33 29.3253 35 65.5 35Z" fill="#FFD921"/>
</g>
</svg>
