<svg width="1920" height="100" viewBox="0 0 1920 100" fill="none" xmlns="http://www.w3.org/2000/svg">
<mask id="mask0_96_180" style="mask-type:alpha" maskUnits="userSpaceOnUse" x="0" y="0" width="1920" height="100">
<rect width="1920" height="100" fill="#D9D9D9"/>
</mask>
<g mask="url(#mask0_96_180)">
<path fill-rule="evenodd" clip-rule="evenodd" d="M249.54 40.9008C228.173 74.1222 183.31 97 131.425 97C58.8408 97 0 52.2285 0 -3C0 -58.2285 58.8408 -103 131.425 -103C183.31 -103 228.173 -80.1222 249.54 -46.9008C271.016 -80.1222 316.107 -103 368.256 -103C419.897 -103 464.617 -80.5651 486.338 -47.8673C508.058 -80.5651 552.778 -103 604.42 -103C656.569 -103 701.659 -80.1222 723.135 -46.9008C744.503 -80.1222 789.365 -103 841.251 -103C893.655 -103 938.895 -79.6628 960 -45.9021C981.105 -79.6628 1026.35 -103 1078.75 -103C1130.63 -103 1175.5 -80.1222 1196.86 -46.9008C1218.34 -80.1222 1263.43 -103 1315.58 -103C1367.22 -103 1411.94 -80.5651 1433.66 -47.8673C1455.38 -80.5651 1500.1 -103 1551.74 -103C1603.89 -103 1648.98 -80.1222 1670.46 -46.9008C1691.83 -80.1222 1736.69 -103 1788.58 -103C1861.16 -103 1920 -58.2285 1920 -3C1920 52.2285 1861.16 97 1788.58 97C1736.69 97 1691.83 74.1222 1670.46 40.9008C1648.98 74.1222 1603.89 97 1551.74 97C1500.1 97 1455.38 74.5651 1433.66 41.8673C1411.94 74.5651 1367.22 97 1315.58 97C1263.43 97 1218.34 74.1222 1196.86 40.9008C1175.5 74.1222 1130.63 97 1078.75 97C1026.35 97 981.105 73.6628 960 39.9021C938.895 73.6628 893.655 97 841.251 97C789.365 97 744.503 74.1222 723.135 40.9008C701.659 74.1222 656.569 97 604.42 97C552.778 97 508.058 74.5651 486.338 41.8673C464.617 74.5651 419.897 97 368.256 97C316.107 97 271.016 74.1222 249.54 40.9008Z" fill="#FFD921"/>
</g>
</svg>
