<svg width="1920" height="100" viewBox="0 0 1920 100" fill="none" xmlns="http://www.w3.org/2000/svg">
<mask id="mask0_96_179" style="mask-type:alpha" maskUnits="userSpaceOnUse" x="0" y="0" width="1920" height="100">
<rect width="1920" height="100" fill="#D9D9D9"/>
</mask>
<g mask="url(#mask0_96_179)">
<path fill-rule="evenodd" clip-rule="evenodd" d="M249.54 143.901C228.173 177.122 183.31 200 131.425 200C58.8408 200 0 155.228 0 100C0 44.7715 58.8408 0 131.425 0C183.31 0 228.173 22.8778 249.54 56.0992C271.016 22.8778 316.107 0 368.256 0C419.897 0 464.617 22.4349 486.338 55.1327C508.058 22.4349 552.778 0 604.42 0C656.569 0 701.659 22.8778 723.135 56.0992C744.503 22.8778 789.365 0 841.251 0C893.655 0 938.895 23.3372 960 57.0979C981.105 23.3372 1026.35 0 1078.75 0C1130.63 0 1175.5 22.8778 1196.86 56.0992C1218.34 22.8778 1263.43 0 1315.58 0C1367.22 0 1411.94 22.4349 1433.66 55.1327C1455.38 22.4349 1500.1 0 1551.74 0C1603.89 0 1648.98 22.8778 1670.46 56.0992C1691.83 22.8778 1736.69 0 1788.58 0C1861.16 0 1920 44.7715 1920 100C1920 155.228 1861.16 200 1788.58 200C1736.69 200 1691.83 177.122 1670.46 143.901C1648.98 177.122 1603.89 200 1551.74 200C1500.1 200 1455.38 177.565 1433.66 144.867C1411.94 177.565 1367.22 200 1315.58 200C1263.43 200 1218.34 177.122 1196.86 143.901C1175.5 177.122 1130.63 200 1078.75 200C1026.35 200 981.105 176.663 960 142.902C938.895 176.663 893.655 200 841.251 200C789.365 200 744.503 177.122 723.135 143.901C701.659 177.122 656.569 200 604.42 200C552.778 200 508.058 177.565 486.338 144.867C464.617 177.565 419.897 200 368.256 200C316.107 200 271.016 177.122 249.54 143.901Z" fill="#FFD921"/>
</g>
</svg>
