<svg width="154" height="154" viewBox="0 0 154 154" fill="none" xmlns="http://www.w3.org/2000/svg">
<path d="M124.977 77.0236L128.464 77.3608L128.416 77.8625C127.341 77.7586 125.652 78.5116 125.488 80.2076C125.412 80.996 125.906 81.6224 126.575 81.6871C127.172 81.7449 127.653 81.2609 128.162 80.4903L129.008 79.2218C129.74 78.1352 130.785 77.8022 131.549 77.8761C132.839 78.0009 133.607 79.2808 133.49 80.4991C133.369 81.7413 132.774 82.1659 132.744 82.4765C132.735 82.5721 132.897 82.636 133.279 82.673L133.231 83.1746L130.46 82.9067L130.508 82.405C131.512 82.502 132.584 81.8824 132.702 80.6641C132.781 79.8519 132.39 79.4042 131.793 79.3464C131.219 79.291 130.872 79.6432 130.194 80.6627L129.463 81.7493C128.764 82.7427 127.87 83.259 127.01 83.1759C125.433 83.0234 124.531 81.6341 124.681 80.0813C124.785 79.0063 125.63 78.2442 125.662 77.9097C125.683 77.6947 125.501 77.5807 124.928 77.5253L124.977 77.0236Z" fill="#F88B18"/>
<path d="M122.867 90.3178C123.588 88.2308 125.313 88.0144 127.242 88.6806L128.671 89.1743C130.939 89.958 131.419 89.8191 131.944 88.2992L132.398 88.456L131.222 91.8586L126.799 90.3303C125.324 89.8209 124.199 89.9908 123.776 91.2157C123.47 92.1004 123.769 93.9556 125.175 94.4415L126.672 94.9588C128.941 95.7425 129.428 95.5809 129.953 94.061L130.407 94.2178L129.231 97.6204L124.785 96.0843C122.63 95.3397 122.233 95.6086 121.817 96.8109L121.386 96.662L121.783 93.6759C122.049 93.6409 122.891 93.7032 123.292 93.791C122.898 93.0202 122.413 91.6335 122.867 90.3178Z" fill="#F88B18"/>
<path d="M120.474 98.685L120.886 98.974C119.978 100.272 120.134 100.761 122.1 102.137L123.083 102.825C125.049 104.202 125.543 104.166 126.451 102.868L126.864 103.157L125.525 106.117C125.26 106.077 124.33 105.69 123.876 105.46C124.173 106.459 124.287 107.886 123.379 109.184C122.14 110.954 120.331 110.859 118.66 109.69L117.421 108.823C115.455 107.447 114.955 107.449 114.033 108.766L113.621 108.477L116.772 103.974L117.185 104.263C116.29 105.541 116.432 106.051 118.398 107.427L119.539 108.225C120.817 109.119 121.959 109.245 122.785 108.065C123.542 106.984 123.482 105.185 122.401 104.428L121.123 103.533C119.098 102.116 118.712 102.081 117.859 103.3L117.446 103.011L120.474 98.685Z" fill="#F88B18"/>
<path d="M108.583 112.711C110.356 111.278 113.083 111.634 114.607 113.519C116.131 115.404 115.894 118.127 114.121 119.56C113.188 120.315 112.073 120.538 110.954 120.3L113.414 123.342C114.923 125.208 115.404 125.345 116.654 124.334L116.971 124.725L114.549 127.456L107.305 118.497C105.872 116.725 105.392 116.742 104.403 117.542L104.116 117.187L106.035 114.865C106.279 114.976 106.911 115.452 107.208 115.706C107.203 114.63 107.557 113.541 108.583 112.711ZM108.795 113.774C107.955 114.454 107.729 115.624 108.102 116.773L110.049 119.18C111.094 119.786 112.286 119.81 113.126 119.131C114.582 117.954 114.303 116.235 113.096 114.742C111.888 113.249 110.251 112.597 108.795 113.774Z" fill="#F88B18"/>
<path d="M99.4689 119.209C100.534 118.711 101.741 118.968 102.28 120.12C103.144 121.968 101.368 123.779 99.0924 125.373C99.8549 127.003 100.377 127.554 101.617 126.974C102.117 126.74 102.693 126.047 102.368 125.351C102.164 124.916 102.338 124.438 102.751 124.245C103.186 124.041 103.664 124.215 103.868 124.65C104.356 125.693 103.311 127.029 101.92 127.68C99.8113 128.666 98.5248 128.181 97.559 126.116L96.0239 122.833C95.7698 122.29 95.4535 122.067 95.1274 122.219C94.91 122.321 94.7522 122.607 94.6712 122.83L94.1736 122.559C94.3834 121.931 94.8151 121.438 95.2934 121.214C96.1412 120.818 96.8867 121.052 97.3614 121.784C97.9793 120.329 98.5993 119.615 99.4689 119.209ZM99.2307 120.512C98.7742 120.726 98.3236 121.122 97.7403 122.481L98.7773 124.699C100.619 123.254 101.218 122.1 100.771 121.143C100.446 120.448 99.7742 120.258 99.2307 120.512Z" fill="#F88B18"/>
<path d="M89.6778 116.819C90.0058 116.746 90.5161 116.829 90.6464 117.415C90.8498 118.328 89.7956 118.563 89.4761 120.552L88.9565 123.741L92.9489 128.975C93.6755 129.919 94.0999 130.169 94.8262 130.007L94.9305 130.476L90.7839 131.399L90.6796 130.93C91.7104 130.701 91.8925 130.414 91.1217 129.381L88.5772 126.014L87.9122 130.096C87.7304 131.267 87.9387 131.54 88.8992 131.327L89.0035 131.795L85.7238 132.525L85.6195 132.057C86.3457 131.895 86.7881 131.452 86.9751 130.304L89.004 117.879C89.0871 117.368 89.303 116.902 89.6778 116.819Z" fill="#F88B18"/>
<path d="M74.6022 125.266L74.5402 125.766C72.9682 125.571 72.6084 125.938 72.3132 128.32L71.8408 132.131L73.7939 132.373L73.6906 133.206L71.7375 132.964L71.4541 135.251C71.0526 138.49 68.9461 139.486 66.993 139.244C65.421 139.049 64.7352 137.949 64.8297 137.187C64.8887 136.71 65.1979 136.362 65.7219 136.427C66.889 136.571 66.0186 138.325 67.5191 138.511C68.7338 138.662 69.4235 137.78 69.763 135.041L70.0464 132.755L67.6647 132.459L67.768 131.626L70.1498 131.921L70.6221 128.11C70.9173 125.728 70.6817 125.288 69.0859 125.09L69.1479 124.59L74.6022 125.266Z" fill="#F88B18"/>
<path d="M66.3158 124.2L66.1693 124.682C64.6307 124.215 64.2366 124.521 63.5389 126.818L61.3344 134.074C60.6368 136.371 60.7938 136.845 62.3324 137.312L62.1859 137.794L58.5669 137.322L61.9085 126.322C62.6061 124.026 62.4262 123.545 60.9106 123.085L61.0571 122.602L66.3158 124.2Z" fill="#F88B18"/>
<path d="M54.3049 119.234C56.6375 120.521 57.5877 123.32 56.4168 125.443C55.246 127.565 52.3831 128.233 50.0505 126.947C47.7178 125.66 46.7561 122.882 47.9269 120.759C49.0977 118.637 51.9722 117.947 54.3049 119.234ZM53.8528 120.054C52.1085 119.092 50.5565 120.017 49.6291 121.698C48.7017 123.379 48.7468 125.186 50.491 126.148C52.2142 127.099 53.7873 126.185 54.7146 124.504C55.642 122.822 55.576 121.004 53.8528 120.054Z" fill="#F88B18"/>
<path d="M45.7096 113.623L43.1031 120.234C42.6997 121.287 42.7016 121.83 43.2637 122.388L42.9255 122.729L39.9109 119.736L40.249 119.395C41.0155 120.156 41.3037 120.07 41.7746 118.915L43.4234 114.972L37.5434 117.386L37.2027 117.048L39.6082 111.184L35.6431 112.828C34.5925 113.273 34.39 113.579 35.1394 114.323L34.8012 114.663L32.4167 112.296L32.7549 111.956C33.351 112.547 33.8942 112.579 34.9618 112.151L41.5537 109.497L41.8944 109.835L39.6243 115.596L45.3689 113.284L45.7096 113.623Z" fill="#F88B18"/>
<path d="M31.3764 106.199L29.4008 102.739C28.603 102.891 27.7841 103.828 28.5696 105.204C29.0813 106.1 30.1886 106.49 31.3764 106.199ZM35.3252 101.208C36.6343 103.5 35.7971 106.051 33.6921 107.253C31.4829 108.515 28.7832 107.514 27.6764 105.576C26.6172 103.721 27.2728 101.384 29.3508 100.861L32.219 105.884C34.3209 105.015 35.3782 103.333 34.1523 101.187C33.7596 100.499 32.7924 99.7247 31.8845 99.4416L32.1288 98.8047C33.3165 99.0938 34.6468 100.02 35.3252 101.208Z" fill="#F88B18"/>
<path d="M31.6849 95.4644L31.2021 95.6091C30.7474 94.0917 30.267 93.91 27.968 94.5989L26.8185 94.9434C24.5196 95.6323 24.2413 96.0414 24.696 97.5588L24.2132 97.7034L22.7222 94.818C22.9176 94.6342 23.7982 94.1448 24.2603 93.9312C23.2029 93.7469 22.1572 92.9328 21.8817 92.0132C21.5027 90.7488 22.188 89.9421 22.7628 89.7699C23.2685 89.6183 23.9053 89.653 24.1189 90.3657C24.2498 90.8025 23.9692 91.2875 23.5324 91.4184C23.0496 91.563 22.8564 91.9216 22.9942 92.3814C23.1526 92.9102 24.3753 93.8967 26.2145 93.3456L27.4789 92.9666C29.7779 92.2777 30.086 91.8847 29.6245 90.3444L30.1073 90.1997L31.6849 95.4644Z" fill="#F88B18"/>
<path d="M28.425 77.9732L24.9276 77.7571L24.9587 77.254C26.0367 77.3206 27.6979 76.5096 27.803 74.8088C27.8519 74.0183 27.3364 73.4094 26.6657 73.3679C26.0669 73.3309 25.6031 73.8312 25.1216 74.619L24.3201 75.9161C23.6262 77.0274 22.5934 77.3964 21.8269 77.349C20.5334 77.269 19.7211 76.0165 19.7966 74.7949C19.8736 73.5492 20.4542 73.1042 20.4734 72.7928C20.4793 72.697 20.3146 72.6387 19.9313 72.615L19.9624 72.112L22.7411 72.2837L22.71 72.7868C21.704 72.7246 20.6535 73.381 20.5779 74.6027C20.5276 75.4171 20.9336 75.851 21.5325 75.888C22.1074 75.9236 22.4425 75.5596 23.084 74.5171L23.7779 73.4058C24.4419 72.3889 25.3173 71.8418 26.1797 71.8951C27.7606 71.9928 28.7107 73.35 28.6145 74.9071C28.5479 75.985 27.7295 76.776 27.7088 77.1114C27.6954 77.327 27.8811 77.4346 28.4561 77.4702L28.425 77.9732Z" fill="#F88B18"/>
<path d="M30.0236 64.7698C29.3818 66.8825 27.6659 67.1638 25.714 66.5709L24.2672 66.1314C21.9709 65.4337 21.4968 65.5907 21.0294 67.1293L20.5701 66.9898L21.6165 63.5452L26.0944 64.9056C27.5871 65.359 28.705 65.1468 29.0818 63.9068C29.3538 63.0112 28.9855 61.1686 27.5618 60.7361L26.0462 60.2756C23.7498 59.578 23.2687 59.7579 22.8013 61.2965L22.3421 61.157L23.3885 57.7124L27.8894 59.0798C30.0709 59.7425 30.4581 59.4588 30.8279 58.2417L31.2642 58.3743L30.9802 61.3732C30.7157 61.4183 29.8721 61.3877 29.4678 61.3151C29.8904 62.0706 30.4282 63.4379 30.0236 64.7698Z" fill="#F88B18"/>
<path d="M32.1457 56.1606L31.7234 55.8853C32.5884 54.5584 32.417 54.0742 30.4064 52.7636L29.4011 52.1083C27.3905 50.7978 26.8985 50.8494 26.0335 52.1764L25.6113 51.9012L26.8517 48.8995C27.1183 48.93 28.0606 49.2864 28.5221 49.5013C28.1924 48.5129 28.0312 47.09 28.8962 45.763C30.0757 43.9535 31.8867 43.988 33.5957 45.102L34.8623 45.9277C36.8729 47.2382 37.372 47.2198 38.2501 45.8727L38.6723 46.1479L35.6711 50.7521L35.2489 50.4769C36.1007 49.17 35.9424 48.6657 33.9318 47.3552L32.7657 46.595C31.4588 45.7432 30.3129 45.6552 29.5266 46.8615C28.8058 47.9673 28.9242 49.7634 30.03 50.4842L31.3369 51.3361C33.4078 52.686 33.7941 52.7086 34.6067 51.4621L35.0289 51.7373L32.1457 56.1606Z" fill="#F88B18"/>
<path d="M43.4337 41.8384C41.7141 43.3355 38.9761 43.0781 37.3845 41.2499C35.7928 39.4217 35.9305 36.6924 37.6501 35.1953C38.5552 34.4073 39.6621 34.1437 40.7882 34.3406L38.2195 31.3902C36.6436 29.58 36.1585 29.4614 34.9457 30.5173L34.6148 30.1372L36.9359 27.3208L44.5003 36.0093C45.9975 37.7289 46.4762 37.694 47.4355 36.8587L47.735 37.2027L45.9025 39.5936C45.6544 39.4913 45.0053 39.0382 44.6989 38.7958C44.7436 39.8706 44.4293 40.9716 43.4337 41.8384ZM43.1835 40.7834C43.998 40.0742 44.1816 38.8962 43.7667 37.7617L41.7338 35.4267C40.6673 34.8596 39.4752 34.8792 38.6606 35.5884C37.2487 36.8176 37.5899 38.5253 38.8506 39.9734C40.1114 41.4215 41.7716 42.0126 43.1835 40.7834Z" fill="#F88B18"/>
<path d="M52.1933 35.0459C51.1473 35.5833 49.9321 35.3711 49.3509 34.2396C48.4188 32.425 50.1265 30.5495 52.3409 28.8724C51.5185 27.2713 50.976 26.7405 49.7592 27.3656C49.2682 27.6178 48.7178 28.3322 49.0687 29.0153C49.288 29.4423 49.1323 29.927 48.7266 30.1354C48.2997 30.3547 47.815 30.1989 47.5956 29.772C47.0693 28.7472 48.0633 27.3733 49.4296 26.6714C51.5004 25.6078 52.8039 26.0444 53.8457 28.0725L55.5015 31.2961C55.7757 31.8298 56.1 32.041 56.4202 31.8765C56.6337 31.7668 56.7808 31.4754 56.8535 31.2492L57.3607 31.5013C57.1744 32.1366 56.7613 32.6456 56.2916 32.8868C55.4591 33.3145 54.7054 33.108 54.2039 32.3943C53.6404 33.871 53.0473 34.6073 52.1933 35.0459ZM52.383 33.7344C52.8313 33.5041 53.2669 33.0915 53.7994 31.7117L52.6809 29.5342C50.894 31.0456 50.3379 32.2217 50.8204 33.161C51.1713 33.8441 51.8493 34.0085 52.383 33.7344Z" fill="#F88B18"/>
<path d="M62.0299 37.041C61.7049 37.1264 61.1919 37.0627 61.0394 36.4825C60.8014 35.5772 61.8459 35.3026 62.0896 33.303L62.4874 30.0965L58.2989 25.0185C57.5369 24.1021 57.1033 23.8687 56.3837 24.0578L56.2617 23.5936L60.3701 22.5136L60.4921 22.9779C59.4708 23.2463 59.2997 23.5395 60.1094 24.5426L62.78 27.811L63.2893 23.7067C63.4265 22.5291 63.2079 22.264 62.2562 22.5142L62.1342 22.0499L65.3838 21.1957L65.5058 21.66C64.7863 21.8491 64.361 22.3083 64.2178 23.4626L62.663 35.9564C62.5993 36.4695 62.4013 36.9434 62.0299 37.041Z" fill="#F88B18"/>
<path d="M76.886 27.9707L76.9306 27.4687C78.5084 27.609 78.8553 27.2303 79.0679 24.8397L79.4081 21.0148L77.4478 20.8405L77.5222 20.0038L79.4825 20.1781L79.6866 17.8831C79.9757 14.632 82.0465 13.5632 84.0068 13.7375C85.5846 13.8779 86.3081 14.9542 86.24 15.7192C86.1975 16.1973 85.9005 16.5564 85.3746 16.5096C84.2032 16.4054 85.0124 14.6221 83.5063 14.4882C82.2871 14.3797 81.6284 15.2849 81.3839 18.0341L81.1798 20.329L83.5703 20.5416L83.4959 21.3783L81.1054 21.1657L80.7652 24.9906C80.5526 27.3812 80.8033 27.8131 82.405 27.9556L82.3604 28.4576L76.886 27.9707Z" fill="#F88B18"/>
<path d="M85.2667 28.7246L85.3967 28.2377C86.9503 28.6524 87.3338 28.3325 87.9527 26.0136L89.9086 18.6862C90.5276 16.3674 90.3545 15.8989 88.8009 15.4842L88.9309 14.9973L92.5639 15.346L89.5991 26.4531C88.9802 28.7719 89.1764 29.2466 90.7068 29.6551L90.5768 30.142L85.2667 28.7246Z" fill="#F88B18"/>
<path d="M97.2649 33.1479C94.8863 31.9483 93.8333 29.1862 94.9248 27.0219C96.0164 24.8576 98.8526 24.0839 101.231 25.2835C103.61 26.4831 104.674 29.2237 103.582 31.3881C102.491 33.5524 99.6435 34.3475 97.2649 33.1479ZM97.6864 32.3122C99.465 33.2092 100.982 32.227 101.846 30.5127C102.711 28.7983 102.599 26.9948 100.821 26.0978C99.0634 25.2116 97.5252 26.183 96.6606 27.8973C95.796 29.6116 95.9292 31.426 97.6864 32.3122Z" fill="#F88B18"/>
<path d="M106.363 38.6002L108.752 31.9074C109.121 30.8411 109.101 30.2984 108.521 29.7591L108.848 29.4076L111.959 32.3003L111.632 32.6518C110.841 31.9164 110.556 32.0116 110.123 33.1821L108.604 37.1771L114.402 34.5719L114.754 34.8988L112.541 40.8379L116.451 39.0656C117.486 38.5864 117.678 38.2737 116.905 37.5547L117.232 37.2031L119.693 39.4911L119.366 39.8427C118.751 39.2707 118.207 39.2565 117.154 39.7193L110.652 42.5878L110.3 42.261L112.381 36.4285L106.715 38.927L106.363 38.6002Z" fill="#F88B18"/>
<path d="M120.817 45.3351L122.918 48.7197C123.71 48.5389 124.494 47.5719 123.658 46.2262C123.114 45.3495 121.993 45.0002 120.817 45.3351ZM117.054 50.4679C115.662 48.2251 116.405 45.6451 118.464 44.3665C120.625 43.0245 123.36 43.9256 124.537 45.8218C125.664 47.6364 125.095 49.9956 123.037 50.595L119.986 45.6811C117.918 46.6265 116.923 48.3458 118.227 50.4459C118.645 51.1188 119.64 51.857 120.558 52.1064L120.337 52.752C119.139 52.5067 117.776 51.6301 117.054 50.4679Z" fill="#F88B18"/>
<path d="M120.947 56.1123L121.424 55.9495C121.935 57.4486 122.422 57.6121 124.693 56.8369L125.829 56.4493C128.101 55.6741 128.363 55.2548 127.852 53.7557L128.329 53.5929L129.927 56.4201C129.739 56.6111 128.877 57.1334 128.424 57.3643C129.487 57.5085 130.563 58.2826 130.873 59.1911C131.299 60.4404 130.645 61.2723 130.077 61.4661C129.578 61.6367 128.94 61.626 128.7 60.9219C128.552 60.4903 128.814 59.9951 129.246 59.8479C129.723 59.6851 129.903 59.3195 129.747 58.8652C129.569 58.3428 128.31 57.4031 126.493 58.0232L125.244 58.4496C122.973 59.2248 122.679 59.6291 123.199 61.1509L122.722 61.3137L120.947 56.1123Z" fill="#F88B18"/>
</svg>
