<svg width="514" height="514" viewBox="0 0 514 514" fill="none" xmlns="http://www.w3.org/2000/svg">
<path d="M254.014 513C271.938 513 286.468 469.754 286.468 416.406C286.468 363.059 271.938 319.813 254.014 319.813C236.09 319.813 221.56 363.059 221.56 416.406C221.56 469.754 236.09 513 254.014 513Z" fill="#FCEE21" stroke="#F7931E" stroke-width="0.5" stroke-miterlimit="10"/>
<path d="M166.051 393.379C202.654 355.657 220.614 313.006 206.166 298.116C191.717 283.226 150.331 301.734 113.728 339.457C77.125 377.179 59.1652 419.83 73.6138 434.72C88.0624 449.61 129.448 431.101 166.051 393.379Z" fill="#FCEE21" stroke="#F7931E" stroke-width="0.5" stroke-miterlimit="10"/>
<path d="M94.7282 295.33C146.493 295.33 188.456 277.36 188.456 255.194C188.456 233.027 146.493 215.058 94.7282 215.058C42.9636 215.058 1 233.027 1 255.194C1 277.36 42.9636 295.33 94.7282 295.33Z" fill="#FCEE21" stroke="#F7931E" stroke-width="0.5" stroke-miterlimit="10"/>
<path d="M419.272 295.33C471.036 295.33 513 277.36 513 255.194C513 233.027 471.036 215.058 419.272 215.058C367.507 215.058 325.544 233.027 325.544 255.194C325.544 277.36 367.507 295.33 419.272 295.33Z" fill="#FCEE21" stroke="#F7931E" stroke-width="0.5" stroke-miterlimit="10"/>
<path d="M254.014 194.187C271.938 194.187 286.468 150.941 286.468 97.5937C286.468 44.2465 271.938 1 254.014 1C236.09 1 221.56 44.2465 221.56 97.5937C221.56 150.941 236.09 194.187 254.014 194.187Z" fill="#FCEE21" stroke="#F7931E" stroke-width="0.5" stroke-miterlimit="10"/>
<path d="M443.904 444.34C458.353 429.45 440.393 386.799 403.79 349.077C367.187 311.354 325.801 292.846 311.352 307.736C296.904 322.626 314.864 365.277 351.467 402.999C388.07 440.721 429.455 459.23 443.904 444.34Z" fill="#FCEE21" stroke="#F7931E" stroke-width="0.5" stroke-miterlimit="10"/>
<path d="M198.551 204.256C213 189.366 195.04 146.715 158.437 108.993C121.834 71.2708 80.4482 52.762 65.9996 67.6523C51.551 82.5427 69.5109 125.193 106.114 162.916C142.717 200.638 184.103 219.147 198.551 204.256Z" fill="#FCEE21" stroke="#F7931E" stroke-width="0.5" stroke-miterlimit="10"/>
<path d="M401.952 162.939C438.555 125.217 456.515 82.566 442.066 67.6757C427.618 52.7854 386.232 71.2943 349.629 109.016C313.026 146.739 295.066 189.389 309.515 204.28C323.963 219.17 365.349 200.661 401.952 162.939Z" fill="#FCEE21" stroke="#F7931E" stroke-width="0.5" stroke-miterlimit="10"/>
<path d="M251.677 358.343C306.023 358.343 350.079 312.94 350.079 256.933C350.079 200.926 306.023 155.523 251.677 155.523C197.332 155.523 153.276 200.926 153.276 256.933C153.276 312.94 197.332 358.343 251.677 358.343Z" fill="#FF931E"/>
</svg>
